<svg width="130" height="35" viewBox="0 0 130 35" fill="none" xmlns="http://www.w3.org/2000/svg">
<g clip-path="url(#clip0_1101_100)">
<path d="M15.4228 11.8246C15.4203 9.806 16.0428 7.83617 17.2049 6.18563C14.4394 5.53232 11.5405 5.73673 8.89401 6.77165C6.24754 7.80658 3.97902 9.62295 2.39036 11.979C0.8017 14.3351 -0.0317528 17.1191 0.000925431 19.9605C0.0336036 22.802 0.930863 25.5661 2.57329 27.885C4.21571 30.2039 6.52541 31.9676 9.19498 32.9414C11.8645 33.9152 14.7674 34.0528 17.5171 33.3361C20.2669 32.6194 22.7331 31.0822 24.5877 28.9291C26.4422 26.7761 27.5971 24.1093 27.8985 21.2838C26.4384 21.6931 24.9033 21.7589 23.4135 21.4759C21.9237 21.1929 20.5197 20.5689 19.3113 19.6527C18.1029 18.7365 17.1231 17.553 16.4485 16.1949C15.7738 14.8368 15.4228 13.341 15.4228 11.8246Z" fill="#5566F9"/>
<path d="M35.0717 11.8245C35.0721 9.73568 34.4066 7.70111 33.1718 6.01629C31.9371 4.33147 30.1974 3.08414 28.2054 2.45546C26.2134 1.82677 24.0729 1.84947 22.0947 2.52025C20.1165 3.19103 18.4036 4.47501 17.2049 6.18563C20.271 6.91057 23.0026 8.64903 24.9577 11.1197C26.9128 13.5903 27.9768 16.6484 27.9776 19.799C27.977 20.295 27.9506 20.7906 27.8985 21.2838C29.9622 20.7051 31.78 19.4675 33.0751 17.7598C34.3701 16.0521 35.0713 13.9678 35.0717 11.8245Z" fill="#939598"/>
<path d="M17.2049 6.18563C16.0415 7.84445 15.4196 9.82244 15.4243 11.8485C15.429 13.8747 16.0601 15.8497 17.2312 17.5031C18.4022 19.1565 20.0559 20.4073 21.9656 21.0842C23.8754 21.761 25.9477 21.8307 27.8985 21.2838C27.9506 20.7906 27.977 20.295 27.9776 19.799C27.9768 16.6484 26.9128 13.5903 24.9577 11.1197C23.0026 8.64903 20.271 6.91057 17.2049 6.18563Z" fill="#5566F9"/>
<path d="M17.2049 6.18563C16.0415 7.84445 15.4196 9.82244 15.4243 11.8485C15.429 13.8747 16.0601 15.8497 17.2312 17.5031C18.4022 19.1565 20.0559 20.4073 21.9656 21.0842C23.8754 21.761 25.9477 21.8307 27.8985 21.2838C27.9506 20.7906 27.977 20.295 27.9776 19.799C27.9768 16.6484 26.9128 13.5903 24.9577 11.1197C23.0026 8.64903 20.271 6.91057 17.2049 6.18563Z" fill="#2A3588"/>
<path d="M53.819 8.30168L53.0707 12.5386H56.0873L55.5834 15.3781H52.5703L51.2025 23.1354C51.0931 23.7594 51.1537 24.2047 51.3843 24.4714C51.6148 24.7381 52.0448 24.8715 52.6742 24.8715C53.0833 24.8715 53.5074 24.8546 53.9464 24.8208L53.7635 27.4821C53.3457 27.5552 52.9067 27.617 52.4464 27.6674C52.0154 27.7166 51.582 27.7422 51.1482 27.7441C50.4758 27.7605 49.8048 27.6722 49.1596 27.4821C48.6765 27.341 48.2422 27.0685 47.9051 26.6949C47.5909 26.32 47.3921 25.8621 47.3327 25.3766C47.2576 24.7564 47.2819 24.1281 47.4047 23.5155L48.8386 15.3781H46.3873L46.8877 12.5386H49.3402L49.9798 8.9083L53.819 8.30168Z" fill="#41415A"/>
<path d="M59.144 12.5386H62.91L60.264 27.5411H56.4992L59.144 12.5386ZM61.3344 10.7683C60.9853 10.7764 60.6367 10.7395 60.297 10.6585C60.0583 10.6048 59.8422 10.4782 59.6786 10.2962C59.5293 10.1085 59.443 9.87848 59.4319 9.63886C59.4132 9.30881 59.4362 8.9777 59.5004 8.65341C59.5546 8.31467 59.6497 7.98377 59.7836 7.66795C59.892 7.4147 60.0571 7.18977 60.2663 7.01059C60.4842 6.83516 60.7393 6.71202 61.0122 6.65063C61.3637 6.57112 61.7235 6.53427 62.0838 6.54087C62.4305 6.53312 62.7768 6.57001 63.1141 6.65063C63.3503 6.7065 63.5639 6.83286 63.7266 7.01295C63.8749 7.20155 63.9622 7.43085 63.9768 7.67031C63.9982 8.00022 63.9764 8.33151 63.9119 8.65577C63.8577 8.9945 63.7626 9.3254 63.6287 9.64122C63.5211 9.89364 63.3576 10.1184 63.1507 10.2986C62.9351 10.4759 62.6808 10.6001 62.4084 10.6609C62.056 10.74 61.6955 10.7768 61.3344 10.7707V10.7683Z" fill="#41415A"/>
<path d="M67.8573 27.5411H64.1303L66.0646 16.5736C66.1543 16.063 66.2491 15.5815 66.349 15.1291C66.4489 14.6767 66.5634 14.2093 66.6924 13.727C67.7119 13.2392 68.7906 12.8865 69.9014 12.6778C71.1405 12.4438 72.3993 12.3296 73.6603 12.3368C74.4256 12.3251 75.1903 12.39 75.9427 12.5303C76.4809 12.6295 76.9991 12.8161 77.477 13.0826C77.8481 13.2919 78.1615 13.59 78.3893 13.9501C78.5994 14.2987 78.7405 14.6846 78.8047 15.0866C78.8744 15.5368 78.8882 15.9938 78.846 16.4473C78.8051 16.9359 78.737 17.4497 78.6418 17.9887L76.9577 27.5411H73.2366L74.8617 18.3262C74.9469 17.8774 74.9935 17.4222 75.001 16.9655C75.0142 16.6363 74.9256 16.3112 74.7472 16.0343C74.5459 15.7704 74.2615 15.5821 73.94 15.4997C73.443 15.3693 72.9299 15.3113 72.4163 15.3274C72.2145 15.3274 72.0045 15.3356 71.785 15.3521C71.5654 15.3687 71.3518 15.3946 71.1441 15.4288C70.9422 15.4607 70.7421 15.5028 70.5446 15.5551C70.368 15.5996 70.1955 15.6588 70.0288 15.7322C69.9415 16.0343 69.8601 16.3624 69.7845 16.7129C69.709 17.0634 69.6405 17.408 69.5815 17.7444L67.8573 27.5411Z" fill="#41415A"/>
<path d="M85.9531 19.1016L92.2317 12.5386H96.5193L89.6659 19.4462L94.1754 27.5411H89.6435L85.7867 20.0788L84.4708 27.5411H80.7414L84.4094 6.74386H88.1329L85.9531 19.1016Z" fill="#41415A"/>
<path d="M100.043 6.74386H103.792L100.841 23.447C100.785 23.7563 100.75 24.069 100.735 24.3829C100.723 24.659 100.737 24.9356 100.776 25.2091C100.814 25.47 100.877 25.7265 100.965 25.975C101.058 26.2378 101.172 26.4928 101.306 26.7374L97.7361 28.2823C97.5445 28.0025 97.3827 27.7035 97.2534 27.39C97.1194 27.0609 97.0232 26.7176 96.9666 26.3668C96.9021 25.9686 96.8772 25.565 96.8922 25.1618C96.909 24.6799 96.9611 24.1999 97.048 23.7256L100.043 6.74386Z" fill="#41415A"/>
<path d="M106.017 27.744C105.666 27.7524 105.314 27.7155 104.972 27.6343C104.732 27.5894 104.515 27.4622 104.359 27.2745C104.203 27.0867 104.118 26.8504 104.117 26.6063C104.099 26.2651 104.124 25.9229 104.192 25.5878C104.247 25.2349 104.345 24.8898 104.482 24.5599C104.589 24.3044 104.753 24.0767 104.961 23.8943C105.177 23.7193 105.431 23.598 105.702 23.5402C106.056 23.4645 106.417 23.4293 106.779 23.4352C107.128 23.4277 107.477 23.4629 107.817 23.5402C108.058 23.5848 108.276 23.7111 108.434 23.8977C108.592 24.0844 108.681 24.3199 108.686 24.5646C108.705 24.9089 108.681 25.2543 108.614 25.5926C108.558 25.9418 108.462 26.2836 108.328 26.6111C108.227 26.871 108.062 27.1013 107.849 27.281C107.635 27.4606 107.38 27.5837 107.107 27.639C106.749 27.7168 106.383 27.7521 106.017 27.744Z" fill="#41415A"/>
<path d="M114.393 12.5385H118.159L115.513 27.541H111.748L114.393 12.5385ZM116.584 10.7682C116.235 10.7764 115.886 10.7395 115.546 10.6585C115.308 10.6047 115.091 10.4781 114.928 10.2962C114.779 10.1084 114.692 9.87841 114.681 9.6388C114.662 9.30874 114.685 8.97764 114.75 8.65335C114.804 8.31461 114.899 7.98371 115.033 7.66789C115.141 7.41464 115.306 7.18971 115.516 7.01053C115.732 6.83452 115.986 6.71056 116.258 6.64821C116.609 6.5687 116.969 6.53185 117.33 6.53845C117.676 6.53063 118.022 6.56752 118.359 6.64821C118.597 6.70239 118.813 6.82893 118.977 7.01053C119.126 7.19868 119.214 7.42817 119.228 7.66789C119.25 7.9978 119.228 8.32909 119.164 8.65335C119.109 8.99208 119.014 9.32298 118.88 9.6388C118.773 9.89121 118.609 10.116 118.402 10.2962C118.187 10.474 117.933 10.5989 117.661 10.6608C117.308 10.7402 116.946 10.777 116.584 10.7706V10.7682Z" fill="#41415A"/>
<path d="M127.726 8.30168L126.985 12.5386H130L129.5 15.3781H126.477L125.109 23.1354C125 23.7594 125.061 24.2047 125.291 24.4714C125.522 24.7381 125.952 24.8715 126.581 24.8715C126.991 24.8715 127.415 24.855 127.853 24.8208L127.67 27.4821C127.253 27.5552 126.814 27.617 126.353 27.6674C125.922 27.7166 125.489 27.7422 125.055 27.7441C124.383 27.7605 123.712 27.6722 123.066 27.4821C122.584 27.3405 122.149 27.068 121.812 26.6949C121.498 26.3197 121.299 25.862 121.239 25.3766C121.164 24.7564 121.189 24.1281 121.311 23.5155L122.745 15.3781H120.294L120.796 12.5386H123.247L123.887 8.9083L127.726 8.30168Z" fill="#41415A"/>
</g>
<defs>
<clipPath id="clip0_1101_100">
<rect width="130" height="35" fill="white"/>
</clipPath>
</defs>
</svg>
